<?xml version="1.0" standalone="no"?><!DOCTYPE svg PUBLIC "-//W3C//DTD SVG 1.1//EN" "http://www.w3.org/Graphics/SVG/1.1/DTD/svg11.dtd">
<svg class="icon" viewBox="0 0 40 40" version="1.1" xmlns="http://www.w3.org/2000/svg"
     data-darkreader-inline-fill="" width="40" height="40">
    <!-- 透明背景，整体尺寸 40x40 -->
    <!-- 图标内容缩放并居中，四周留出透明边距 -->
    <g transform="translate(4, 4) scale(0.03125)">
        <!-- scale(0.03125) = 32/1024，将 1024x1024 的图标缩放到 32x32，四周各留 4px 透明边距 -->
        <path
            d="M509.441408 1022.464a193.6128 193.6128 0 0 1-92.0064-23.1168L104.807808 830.0288C47.361408 798.0544 12.443008 741.4528 12.801408 680.5248V342.016c0-60.8512 34.5344-117.4784 91.9552-149.504L417.435008 23.1168a194.7136 194.7136 0 0 1 184.0128 0L914.177408 192.512c57.4208 32.1024 92.2368 88.6528 92.0064 149.504v338.5088c0 60.8512-34.5344 117.5296-92.0064 149.504l-312.704 169.3184a193.1776 193.1776 0 0 1-92.0064 23.1168z"
            fill="#1EDAB5"
            style="--darkreader-inline-fill: var(--darkreader-background-1edab5, #35aa8c);">
        </path>
        <path
            d="M486.708608 1022.1056c-40.9088-191.2064-40.9088-325.7856-42.1888-360.064L576.001408 384c128.7424-46.8224 215.04-120.6784 408.832-122.368 14.2336 24.8832 21.76 52.992 21.9392 81.664v338.4832c0 60.8512-34.688 117.4784-92.032 149.504l-312.6784 169.2672a194.0992 194.0992 0 0 1-115.3536 21.5552z"
            fill="#77E89B"
            style="--darkreader-inline-fill: var(--darkreader-background-77e89b, #28794a);">
        </path>
        <path
            d="M308.123008 281.6c12.4416 0.0512 22.4768 11.9552 22.4768 26.624 0 14.592-10.0352 26.496-22.4768 26.5216-12.544 0-22.6304 11.9296-22.6304 26.624v132.864c0 7.0656-2.4064 13.8752-6.7072 18.7904l-6.5536 7.808 6.656 7.808c4.352 5.2736 6.7072 11.9296 6.656 18.7904v132.864c0 14.6944 10.0864 26.624 22.6304 26.624 12.416 0.0256 22.4768 11.9552 22.4768 26.5472 0 14.6432-10.0608 26.5472-22.4768 26.5984-37.4784 0-67.9424-35.7888-67.9424-79.7696v-121.856l-16-18.816a29.952 29.952 0 0 1 0-37.6064l16-18.7904v-121.856c0-44.032 30.464-79.7696 67.9424-79.7696h-0.0512z m393.1904 0c37.376 0 67.7888 35.7888 67.7888 79.7696v121.856l16 18.7904c8.7808 11.008 8.7808 26.624 0 37.632l-16 18.7904v121.856c0 44.032-30.4128 79.7696-67.7888 79.7696a22.1952 22.1952 0 0 1-19.6608-13.2608 30.6688 30.6688 0 0 1 0-26.624 22.1952 22.1952 0 0 1 19.6096-13.2864c12.544 0 22.6304-11.904 22.6304-26.5984v-132.864c0-7.0912 2.4064-13.8752 6.656-18.7904l6.6048-7.808-6.6048-7.808a29.0816 29.0816 0 0 1-6.656-18.7904v-132.864c0-14.6944-10.0864-26.624-22.5792-26.624a22.1952 22.1952 0 0 1-19.6608-13.2352 30.6688 30.6688 0 0 1 0-26.6496 22.1952 22.1952 0 0 1 19.6096-13.2608h0.0512z m-137.4208 86.2208a23.9104 23.9104 0 0 1 11.8272 31.744l-139.264 304.384a23.936 23.936 0 1 1-43.5712-19.9168l139.3408-304.3584a23.9104 23.9104 0 0 1 31.6672-11.8016v-0.0512z"
            fill="#FFFFFF"
            style="--darkreader-inline-fill: var(--darkreader-background-ffffff, #1a1b1a);">
        </path>
    </g>
    <!-- 右下角绿色圆点 -->
    <circle cx="35" cy="29" r="3.5" fill="#EF4444" stroke="#FFFFFF" stroke-width="0.5"/>
</svg>
