<svg xmlns="http://www.w3.org/2000/svg" version="1.1" viewBox="0.32961833477020264 0.9299832582473755 954.929931640625 901.6000366210938"
     width="956.00" height="903.00">
    <g stroke-width="2.00" fill="none" stroke-linecap="butt">
        <path stroke="#ff773e"
              d="&#10;  M 554.12 218.07&#10;  C 533.86 214.47 516.43 214.57 493.56 214.73&#10;  Q 481.53 214.81 474.68 215.94&#10;  Q 468.72 216.92 463.24 220.91&#10;  C 454.47 227.29 444.68 233.45 433.76 241.15&#10;  Q 425.43 247.01 418.22 252.81&#10;  C 408.73 260.45 400.83 262.21 387.17 266.36&#10;  Q 380.18 268.49 369.91 275.29&#10;  C 361.04 281.17 354.07 286.49 345.72 291.06&#10;  Q 333.96 297.49 319.52 302.61&#10;  Q 280.92 316.30 243.55 330.72&#10;  Q 232.44 335.00 225.50 339.63&#10;  C 214.66 346.85 206.72 352.68 197.33 357.09&#10;  Q 187.84 361.53 171.13 368.55&#10;  Q 167.36 370.13 151.93 378.16&#10;  C 137.15 385.86 122.91 391.44 106.95 396.99&#10;  C 90.76 402.62 82.04 406.98 58.98 416.90&#10;  C 48.93 421.22 39.32 426.09 29.70 429.94&#10;  Q 18.76 434.32 5.67 435.81&#10;  A 0.84 0.82 -84.5 0 0 4.97 436.40&#10;  Q -1.61 458.86 5.74 481.13&#10;  Q 6.13 482.31 9.18 488.85&#10;  Q 11.16 493.09 12.06 497.73"/>
        <path stroke="#ff7146"
              d="&#10;  M 436.88 336.81&#10;  Q 421.72 346.80 404.54 352.31&#10;  C 395.50 355.21 386.91 358.11 380.04 362.79&#10;  Q 363.97 373.76 363.03 374.31&#10;  C 341.95 386.67 322.83 391.32 294.25 399.97&#10;  Q 228.02 420.02 176.89 439.34&#10;  C 159.14 446.05 143.82 453.97 126.93 460.56&#10;  Q 105.00 469.11 79.95 479.42&#10;  Q 69.02 483.91 38.53 493.83&#10;  Q 35.24 494.90 18.12 502.11&#10;  A 0.46 0.46 0.0 0 0 17.90 502.77&#10;  C 22.22 509.99 27.15 514.68 32.24 520.50"/>
        <path stroke="#fe6751"
              d="&#10;  M 328.30 446.49&#10;  Q 321.43 449.13 319.60 449.58&#10;  C 303.91 453.42 289.74 456.64 276.72 461.28&#10;  Q 260.64 467.00 230.40 477.65&#10;  C 213.52 483.59 191.35 492.95 178.20 497.73&#10;  Q 107.68 523.35 56.23 544.66"/>
        <path stroke="#fe6751"
              d="&#10;  M 803.73 266.94&#10;  C 801.30 279.67 791.72 285.45 780.55 289.95&#10;  Q 746.23 303.80 711.33 316.10&#10;  C 688.61 324.11 662.02 331.58 637.21 338.74"/>
        <path stroke="#fa5d5c"
              d="&#10;  M 864.29 327.52&#10;  C 859.65 333.00 852.98 336.04 846.20 339.21&#10;  C 834.03 344.89 822.26 349.74 810.00 355.86&#10;  Q 788.93 366.38 763.42 376.46&#10;  C 737.68 386.63 710.69 393.28 684.11 399.50&#10;  C 663.40 404.35 646.05 412.13 629.54 416.96&#10;  C 611.52 422.22 595.62 425.08 578.01 428.28&#10;  Q 570.06 429.72 560.62 432.76&#10;  Q 550.90 435.89 548.06 437.80&#10;  Q 537.47 444.92 526.34 451.50"/>
        <path stroke="#f65768"
              d="&#10;  M 923.60 386.94&#10;  C 914.66 383.53 906.92 381.65 898.66 387.38&#10;  Q 886.18 396.05 872.45 402.38&#10;  Q 857.01 409.51 832.25 420.50&#10;  C 822.53 424.81 811.06 431.19 803.54 434.35&#10;  C 781.19 443.73 757.87 452.41 734.39 458.20&#10;  C 712.90 463.49 691.61 469.37 669.06 476.35&#10;  C 653.01 481.32 642.00 485.29 627.26 489.27&#10;  C 618.15 491.73 607.85 494.41 599.16 497.45&#10;  Q 588.00 501.35 576.77 505.43&#10;  Q 571.32 507.41 568.04 508.26&#10;  C 552.10 512.40 541.58 514.70 526.29 519.03&#10;  C 505.41 524.94 487.15 529.34 463.66 535.89&#10;  Q 442.73 541.73 424.69 554.26"/>
        <path stroke="#f35073"
              d="&#10;  M 945.24 487.54&#10;  Q 948.15 477.84 951.40 468.97&#10;  Q 951.91 467.57 952.41 463.82&#10;  A 0.57 0.57 0.0 0 0 952.03 463.21&#10;  C 943.99 460.49 936.13 461.47 928.43 464.26&#10;  Q 917.49 468.22 906.31 471.10&#10;  C 888.46 475.69 872.31 481.09 857.95 485.85&#10;  C 841.12 491.43 820.31 497.27 802.51 503.17&#10;  Q 777.73 511.39 741.05 523.63&#10;  Q 737.01 524.98 714.61 534.51&#10;  C 705.86 538.24 698.41 540.32 684.87 544.24&#10;  C 673.26 547.59 665.85 550.48 654.37 554.50&#10;  C 643.87 558.18 630.32 560.89 618.01 564.56&#10;  C 598.99 570.25 574.65 577.00 553.69 583.81&#10;  C 533.48 590.36 521.78 593.67 503.48 600.97&#10;  Q 488.05 607.11 472.28 612.47&#10;  Q 471.44 612.76 467.20 614.54&#10;  C 452.82 620.59 440.36 628.89 426.40 635.35&#10;  Q 417.01 639.69 410.23 642.83&#10;  C 408.34 643.70 402.44 646.48 401.55 648.86&#10;  A 1.72 1.71 -67.2 0 0 402.42 651.02&#10;  Q 405.52 652.48 408.83 653.34"/>
        <path stroke="#f14d78" d="&#10;  M 408.83 653.34&#10;  Q 374.92 653.09 341.10 653.08&#10;  Q 336.01 653.08 332.53 654.07"/>
        <path stroke="#ef4a7d"
              d="&#10;  M 904.59 531.76&#10;  Q 893.32 535.19 888.64 536.22&#10;  C 876.65 538.84 864.10 541.15 853.26 544.53&#10;  Q 831.19 551.39 820.02 555.29&#10;  Q 784.89 567.56 747.03 579.38&#10;  Q 728.28 585.23 719.38 589.42&#10;  Q 695.14 600.82 684.23 604.76&#10;  Q 665.17 611.65 630.81 624.37&#10;  C 622.10 627.59 613.17 631.40 606.93 634.96&#10;  C 592.19 643.36 585.28 647.53 572.68 651.49&#10;  Q 568.98 652.65 564.44 652.68&#10;  Q 479.34 653.25 417.13 653.13&#10;  Q 412.92 653.13 408.83 653.34"/>
    </g>
    <path fill="#ff8539"
          d="&#10;  M 477.38 0.93&#10;  C 486.63 0.92 495.91 5.38 502.37 11.80&#10;  Q 515.26 24.62 587.17 97.75&#10;  Q 588.22 98.81 590.63 100.61&#10;  A 1.04 1.04 0.0 0 1 590.29 102.44&#10;  Q 588.87 102.85 587.25 102.84&#10;  Q 579.31 102.81 477.46 102.90&#10;  Q 375.61 102.98 367.67 103.02&#10;  Q 366.05 103.03 364.63 102.62&#10;  A 1.04 1.04 0.0 0 1 364.29 100.79&#10;  Q 366.69 98.99 367.74 97.93&#10;  Q 439.53 24.68 452.40 11.84&#10;  C 458.85 5.41 468.12 0.94 477.38 0.93&#10;  Z"/>
    <path fill="#ff7a3a"
          d="&#10;  M 554.12 218.07&#10;  C 533.86 214.47 516.43 214.57 493.56 214.73&#10;  Q 481.53 214.81 474.68 215.94&#10;  Q 468.72 216.92 463.24 220.91&#10;  C 454.47 227.29 444.68 233.45 433.76 241.15&#10;  Q 425.43 247.01 418.22 252.81&#10;  C 408.73 260.45 400.83 262.21 387.17 266.36&#10;  Q 380.18 268.49 369.91 275.29&#10;  C 361.04 281.17 354.07 286.49 345.72 291.06&#10;  Q 333.96 297.49 319.52 302.61&#10;  Q 280.92 316.30 243.55 330.72&#10;  Q 232.44 335.00 225.50 339.63&#10;  C 214.66 346.85 206.72 352.68 197.33 357.09&#10;  Q 187.84 361.53 171.13 368.55&#10;  Q 167.36 370.13 151.93 378.16&#10;  C 137.15 385.86 122.91 391.44 106.95 396.99&#10;  C 90.76 402.62 82.04 406.98 58.98 416.90&#10;  C 48.93 421.22 39.32 426.09 29.70 429.94&#10;  Q 18.76 434.32 5.67 435.81&#10;  A 0.84 0.82 -84.5 0 0 4.97 436.40&#10;  Q -1.61 458.86 5.74 481.13&#10;  Q 6.13 482.31 9.18 488.85&#10;  Q 11.16 493.09 12.06 497.73&#10;  Q 5.37 487.23 3.68 480.07&#10;  Q 2.34 474.38 1.33 470.56&#10;  A 8.53 7.72 38.6 0 1 1.07 468.97&#10;  Q 0.77 464.11 0.37 457.75&#10;  Q 0.14 454.07 1.22 446.17&#10;  Q 2.07 439.92 3.93 434.88&#10;  Q 10.11 418.07 20.06 408.05&#10;  Q 75.42 352.31 89.83 337.58&#10;  Q 97.14 330.10 100.47 326.71&#10;  Q 112.95 314.00 182.84 243.27&#10;  Q 198.71 227.21 202.71 224.39&#10;  Q 212.90 217.19 225.07 214.37&#10;  Q 230.73 213.06 243.72 213.06&#10;  Q 407.71 213.08 552.75 213.11&#10;  Q 554.34 213.11 555.74 214.64&#10;  A 0.86 0.86 0.0 0 1 555.91 215.50&#10;  Q 555.38 216.96 554.12 218.07&#10;  Z"/>
    <path fill="#ff7441"
          d="&#10;  M 554.12 218.07&#10;  L 436.88 336.81&#10;  Q 421.72 346.80 404.54 352.31&#10;  C 395.50 355.21 386.91 358.11 380.04 362.79&#10;  Q 363.97 373.76 363.03 374.31&#10;  C 341.95 386.67 322.83 391.32 294.25 399.97&#10;  Q 228.02 420.02 176.89 439.34&#10;  C 159.14 446.05 143.82 453.97 126.93 460.56&#10;  Q 105.00 469.11 79.95 479.42&#10;  Q 69.02 483.91 38.53 493.83&#10;  Q 35.24 494.90 18.12 502.11&#10;  A 0.46 0.46 0.0 0 0 17.90 502.77&#10;  C 22.22 509.99 27.15 514.68 32.24 520.50&#10;  Q 20.46 510.09 12.06 497.73&#10;  Q 11.16 493.09 9.18 488.85&#10;  Q 6.13 482.31 5.74 481.13&#10;  Q -1.61 458.86 4.97 436.40&#10;  A 0.84 0.82 -84.5 0 1 5.67 435.81&#10;  Q 18.76 434.32 29.70 429.94&#10;  C 39.32 426.09 48.93 421.22 58.98 416.90&#10;  C 82.04 406.98 90.76 402.62 106.95 396.99&#10;  C 122.91 391.44 137.15 385.86 151.93 378.16&#10;  Q 167.36 370.13 171.13 368.55&#10;  Q 187.84 361.53 197.33 357.09&#10;  C 206.72 352.68 214.66 346.85 225.50 339.63&#10;  Q 232.44 335.00 243.55 330.72&#10;  Q 280.92 316.30 319.52 302.61&#10;  Q 333.96 297.49 345.72 291.06&#10;  C 354.07 286.49 361.04 281.17 369.91 275.29&#10;  Q 380.18 268.49 387.17 266.36&#10;  C 400.83 262.21 408.73 260.45 418.22 252.81&#10;  Q 425.43 247.01 433.76 241.15&#10;  C 444.68 233.45 454.47 227.29 463.24 220.91&#10;  Q 468.72 216.92 474.68 215.94&#10;  Q 481.53 214.81 493.56 214.73&#10;  C 516.43 214.57 533.86 214.47 554.12 218.07&#10;  Z"/>
    <path fill="#ff6d4b"
          d="&#10;  M 803.73 266.94&#10;  C 801.30 279.67 791.72 285.45 780.55 289.95&#10;  Q 746.23 303.80 711.33 316.10&#10;  C 688.61 324.11 662.02 331.58 637.21 338.74&#10;  L 754.04 219.47&#10;  A 1.63 1.63 0.0 0 1 756.35 219.46&#10;  L 803.73 266.94&#10;  Z"/>
    <path fill="#fc6056"
          d="&#10;  M 864.29 327.52&#10;  C 859.65 333.00 852.98 336.04 846.20 339.21&#10;  C 834.03 344.89 822.26 349.74 810.00 355.86&#10;  Q 788.93 366.38 763.42 376.46&#10;  C 737.68 386.63 710.69 393.28 684.11 399.50&#10;  C 663.40 404.35 646.05 412.13 629.54 416.96&#10;  C 611.52 422.22 595.62 425.08 578.01 428.28&#10;  Q 570.06 429.72 560.62 432.76&#10;  Q 550.90 435.89 548.06 437.80&#10;  Q 537.47 444.92 526.34 451.50&#10;  L 637.21 338.74&#10;  C 662.02 331.58 688.61 324.11 711.33 316.10&#10;  Q 746.23 303.80 780.55 289.95&#10;  C 791.72 285.45 801.30 279.67 803.73 266.94&#10;  L 864.29 327.52&#10;  Z"/>
    <path fill="#f85a62"
          d="&#10;  M 923.60 386.94&#10;  C 914.66 383.53 906.92 381.65 898.66 387.38&#10;  Q 886.18 396.05 872.45 402.38&#10;  Q 857.01 409.51 832.25 420.50&#10;  C 822.53 424.81 811.06 431.19 803.54 434.35&#10;  C 781.19 443.73 757.87 452.41 734.39 458.20&#10;  C 712.90 463.49 691.61 469.37 669.06 476.35&#10;  C 653.01 481.32 642.00 485.29 627.26 489.27&#10;  C 618.15 491.73 607.85 494.41 599.16 497.45&#10;  Q 588.00 501.35 576.77 505.43&#10;  Q 571.32 507.41 568.04 508.26&#10;  C 552.10 512.40 541.58 514.70 526.29 519.03&#10;  C 505.41 524.94 487.15 529.34 463.66 535.89&#10;  Q 442.73 541.73 424.69 554.26&#10;  L 526.34 451.50&#10;  Q 537.47 444.92 548.06 437.80&#10;  Q 550.90 435.89 560.62 432.76&#10;  Q 570.06 429.72 578.01 428.28&#10;  C 595.62 425.08 611.52 422.22 629.54 416.96&#10;  C 646.05 412.13 663.40 404.35 684.11 399.50&#10;  C 710.69 393.28 737.68 386.63 763.42 376.46&#10;  Q 788.93 366.38 810.00 355.86&#10;  C 822.26 349.74 834.03 344.89 846.20 339.21&#10;  C 852.98 336.04 859.65 333.00 864.29 327.52&#10;  L 923.60 386.94&#10;  Z"/>
    <path fill="#ff6d4b"
          d="&#10;  M 436.88 336.81&#10;  L 328.30 446.49&#10;  Q 321.43 449.13 319.60 449.58&#10;  C 303.91 453.42 289.74 456.64 276.72 461.28&#10;  Q 260.64 467.00 230.40 477.65&#10;  C 213.52 483.59 191.35 492.95 178.20 497.73&#10;  Q 107.68 523.35 56.23 544.66&#10;  L 32.24 520.50&#10;  C 27.15 514.68 22.22 509.99 17.90 502.77&#10;  A 0.46 0.46 0.0 0 1 18.12 502.11&#10;  Q 35.24 494.90 38.53 493.83&#10;  Q 69.02 483.91 79.95 479.42&#10;  Q 105.00 469.11 126.93 460.56&#10;  C 143.82 453.97 159.14 446.05 176.89 439.34&#10;  Q 228.02 420.02 294.25 399.97&#10;  C 322.83 391.32 341.95 386.67 363.03 374.31&#10;  Q 363.97 373.76 380.04 362.79&#10;  C 386.91 358.11 395.50 355.21 404.54 352.31&#10;  Q 421.72 346.80 436.88 336.81&#10;  Z"/>
    <path fill="#f4536e"
          d="&#10;  M 923.60 386.94&#10;  C 935.79 397.98 946.32 411.32 951.52 427.07&#10;  C 952.90 431.23 953.44 435.07 954.44 439.12&#10;  Q 954.93 441.07 955.09 444.00&#10;  Q 955.63 453.48 954.45 461.97&#10;  Q 952.60 475.14 945.24 487.54&#10;  Q 948.15 477.84 951.40 468.97&#10;  Q 951.91 467.57 952.41 463.82&#10;  A 0.57 0.57 0.0 0 0 952.03 463.21&#10;  C 943.99 460.49 936.13 461.47 928.43 464.26&#10;  Q 917.49 468.22 906.31 471.10&#10;  C 888.46 475.69 872.31 481.09 857.95 485.85&#10;  C 841.12 491.43 820.31 497.27 802.51 503.17&#10;  Q 777.73 511.39 741.05 523.63&#10;  Q 737.01 524.98 714.61 534.51&#10;  C 705.86 538.24 698.41 540.32 684.87 544.24&#10;  C 673.26 547.59 665.85 550.48 654.37 554.50&#10;  C 643.87 558.18 630.32 560.89 618.01 564.56&#10;  C 598.99 570.25 574.65 577.00 553.69 583.81&#10;  C 533.48 590.36 521.78 593.67 503.48 600.97&#10;  Q 488.05 607.11 472.28 612.47&#10;  Q 471.44 612.76 467.20 614.54&#10;  C 452.82 620.59 440.36 628.89 426.40 635.35&#10;  Q 417.01 639.69 410.23 642.83&#10;  C 408.34 643.70 402.44 646.48 401.55 648.86&#10;  A 1.72 1.71 -67.2 0 0 402.42 651.02&#10;  Q 405.52 652.48 408.83 653.34&#10;  Q 374.92 653.09 341.10 653.08&#10;  Q 336.01 653.08 332.53 654.07&#10;  L 328.53 654.00&#10;  A 1.13 1.13 0.0 0 1 327.74 652.07&#10;  L 424.69 554.26&#10;  Q 442.73 541.73 463.66 535.89&#10;  C 487.15 529.34 505.41 524.94 526.29 519.03&#10;  C 541.58 514.70 552.10 512.40 568.04 508.26&#10;  Q 571.32 507.41 576.77 505.43&#10;  Q 588.00 501.35 599.16 497.45&#10;  C 607.85 494.41 618.15 491.73 627.26 489.27&#10;  C 642.00 485.29 653.01 481.32 669.06 476.35&#10;  C 691.61 469.37 712.90 463.49 734.39 458.20&#10;  C 757.87 452.41 781.19 443.73 803.54 434.35&#10;  C 811.06 431.19 822.53 424.81 832.25 420.50&#10;  Q 857.01 409.51 872.45 402.38&#10;  Q 886.18 396.05 898.66 387.38&#10;  C 906.92 381.65 914.66 383.53 923.60 386.94&#10;  Z"/>
    <path fill="#fc6056"
          d="&#10;  M 328.30 446.49&#10;  C 290.86 484.70 253.07 522.57 206.82 569.57&#10;  Q 178.54 598.32 145.84 630.84&#10;  C 143.86 632.82 141.79 630.35 140.60 629.15&#10;  Q 98.35 586.90 56.23 544.66&#10;  Q 107.68 523.35 178.20 497.73&#10;  C 191.35 492.95 213.52 483.59 230.40 477.65&#10;  Q 260.64 467.00 276.72 461.28&#10;  C 289.74 456.64 303.91 453.42 319.60 449.58&#10;  Q 321.43 449.13 328.30 446.49&#10;  Z"/>
    <path fill="#f14d78"
          d="&#10;  M 945.24 487.54&#10;  Q 940.23 496.73 931.47 505.22&#10;  Q 925.62 510.88 904.59 531.76&#10;  Q 893.32 535.19 888.64 536.22&#10;  C 876.65 538.84 864.10 541.15 853.26 544.53&#10;  Q 831.19 551.39 820.02 555.29&#10;  Q 784.89 567.56 747.03 579.38&#10;  Q 728.28 585.23 719.38 589.42&#10;  Q 695.14 600.82 684.23 604.76&#10;  Q 665.17 611.65 630.81 624.37&#10;  C 622.10 627.59 613.17 631.40 606.93 634.96&#10;  C 592.19 643.36 585.28 647.53 572.68 651.49&#10;  Q 568.98 652.65 564.44 652.68&#10;  Q 479.34 653.25 417.13 653.13&#10;  Q 412.92 653.13 408.83 653.34&#10;  Q 405.52 652.48 402.42 651.02&#10;  A 1.72 1.71 -67.2 0 1 401.55 648.86&#10;  C 402.44 646.48 408.34 643.70 410.23 642.83&#10;  Q 417.01 639.69 426.40 635.35&#10;  C 440.36 628.89 452.82 620.59 467.20 614.54&#10;  Q 471.44 612.76 472.28 612.47&#10;  Q 488.05 607.11 503.48 600.97&#10;  C 521.78 593.67 533.48 590.36 553.69 583.81&#10;  C 574.65 577.00 598.99 570.25 618.01 564.56&#10;  C 630.32 560.89 643.87 558.18 654.37 554.50&#10;  C 665.85 550.48 673.26 547.59 684.87 544.24&#10;  C 698.41 540.32 705.86 538.24 714.61 534.51&#10;  Q 737.01 524.98 741.05 523.63&#10;  Q 777.73 511.39 802.51 503.17&#10;  C 820.31 497.27 841.12 491.43 857.95 485.85&#10;  C 872.31 481.09 888.46 475.69 906.31 471.10&#10;  Q 917.49 468.22 928.43 464.26&#10;  C 936.13 461.47 943.99 460.49 952.03 463.21&#10;  A 0.57 0.57 0.0 0 1 952.41 463.82&#10;  Q 951.91 467.57 951.40 468.97&#10;  Q 948.15 477.84 945.24 487.54&#10;  Z"/>
    <path fill="#ed4682"
          d="&#10;  M 904.59 531.76&#10;  Q 857.11 580.35 809.11 628.44&#10;  Q 797.37 640.20 791.48 643.99&#10;  Q 779.81 651.50 766.41 653.87&#10;  Q 762.90 654.49 753.15 654.16&#10;  Q 749.17 654.03 739.86 654.03&#10;  Q 536.20 654.05 332.53 654.07&#10;  Q 336.01 653.08 341.10 653.08&#10;  Q 374.92 653.09 408.83 653.34&#10;  Q 412.92 653.13 417.13 653.13&#10;  Q 479.34 653.25 564.44 652.68&#10;  Q 568.98 652.65 572.68 651.49&#10;  C 585.28 647.53 592.19 643.36 606.93 634.96&#10;  C 613.17 631.40 622.10 627.59 630.81 624.37&#10;  Q 665.17 611.65 684.23 604.76&#10;  Q 695.14 600.82 719.38 589.42&#10;  Q 728.28 585.23 747.03 579.38&#10;  Q 784.89 567.56 820.02 555.29&#10;  Q 831.19 551.39 853.26 544.53&#10;  C 864.10 541.15 876.65 538.84 888.64 536.22&#10;  Q 893.32 535.19 904.59 531.76&#10;  Z"/>
    <path fill="#e83b94"
          d="&#10;  M 477.65 771.20&#10;  Q 477.84 771.20 478.00 771.20&#10;  Q 555.34 771.05 621.95 771.31&#10;  A 0.60 0.60 0.0 0 1 622.37 772.33&#10;  Q 538.98 855.66 504.99 889.77&#10;  Q 492.27 902.53 477.67 902.53&#10;  Q 463.06 902.53 450.35 889.77&#10;  Q 416.34 855.67 332.94 772.36&#10;  A 0.60 0.60 0.0 0 1 333.36 771.34&#10;  Q 399.97 771.07 477.31 771.20&#10;  Q 477.47 771.20 477.65 771.20&#10;  Z"/>
</svg>