<?xml version="1.0" standalone="no"?>
<!DOCTYPE svg PUBLIC "-//W3C//DTD SVG 1.1//EN"
    "http://www.w3.org/Graphics/SVG/1.1/DTD/svg11.dtd">
<svg class="icon" viewBox="0 0 40 40" version="1.1"
     xmlns="http://www.w3.org/2000/svg"
     data-darkreader-inline-fill=""
     width="40" height="40">

    <!-- 图标内容缩放并居中，四周留出透明边距 -->
    <g transform="translate(4, 4) scale(0.03125)">
        <!-- 背景主体 -->
        <path
            d="M509.441408 1022.464a193.6128 193.6128 0 0 1-92.0064-23.1168L104.807808 830.0288C47.361408 798.0544 12.443008 741.4528 12.801408 680.5248V342.016c0-60.8512 34.5344-117.4784 91.9552-149.504L417.435008 23.1168a194.7136 194.7136 0 0 1 184.0128 0L914.177408 192.512c57.4208 32.1024 92.2368 88.6528 92.0064 149.504v338.5088c0 60.8512-34.5344 117.5296-92.0064 149.504l-312.704 169.3184a193.1776 193.1776 0 0 1-92.0064 23.1168z"
            fill="#45493d"
            style="--darkreader-inline-fill: var(--darkreader-background-1edab5, #35aa8c);"/>

        <path
            d="M486.708608 1022.1056c-40.9088-191.2064-40.9088-325.7856-42.1888-360.064L576.001408 384c128.7424-46.8224 215.04-120.6784 408.832-122.368 14.2336 24.8832 21.76 52.992 21.9392 81.664v338.4832c0 60.8512-34.688 117.4784-92.032 149.504l-312.6784 169.2672a194.0992 194.0992 0 0 1-115.3536 21.5552z"
            fill="#6b7d73"
            style="--darkreader-inline-fill: var(--darkreader-background-77e89b, #28794a);"/>

        <!-- 字符区（已替换） -->
        <g transform="translate(160, 190) scale(12)">
            <path
                fill="#FFFFFF"
                d="M26.90 32.71L31.64 33.91Q30.15 39.75 26.28 42.81Q22.41 45.87 16.82 45.87Q11.04 45.87 7.41 43.52Q3.78 41.16 1.89 36.69Q0 32.23 0 27.10Q0 21.51 2.14 17.35Q4.27 13.18 8.22 11.02Q12.16 8.86 16.89 8.86Q22.27 8.86 25.93 11.60Q29.59 14.33 31.03 19.29L26.37 20.39Q25.12 16.48 22.75 14.70Q20.39 12.92 16.80 12.92Q12.67 12.92 9.90 14.89Q7.13 16.87 6.01 20.20Q4.88 23.54 4.88 27.08Q4.88 31.64 6.21 35.05Q7.54 38.45 10.35 40.14Q13.16 41.82 16.43 41.82Q20.41 41.82 23.17 39.53Q25.93 37.23 26.90 32.71ZM36.91 45.26L36.91 9.47L41.31 9.47L41.31 22.31Q44.38 18.75 49.07 18.75Q51.95 18.75 54.08 19.89Q56.20 21.02 57.12 23.02Q58.03 25.02 58.03 28.83L58.03 45.26L53.64 45.26L53.64 28.83Q53.64 25.54 52.21 24.04Q50.78 22.53 48.17 22.53Q46.22 22.53 44.49 23.55Q42.77 24.56 42.04 26.29Q41.31 28.03 41.31 31.08L41.31 45.26L36.91 45.26Z"/>
        </g>
    </g>

    <!-- 右下角绿色圆点 -->
    <circle cx="35" cy="29" r="3.5"
            fill="#b04552"
            stroke="#FFFFFF"
            stroke-width="0.5"/>
</svg>
