<?xml version="1.0" standalone="no"?>
<!DOCTYPE svg PUBLIC "-//W3C//DTD SVG 1.1//EN"
    "http://www.w3.org/Graphics/SVG/1.1/DTD/svg11.dtd">
<svg class="icon" viewBox="0 0 40 40" version="1.1"
     xmlns="http://www.w3.org/2000/svg"
     data-darkreader-inline-fill=""
     width="40" height="40">

    <!-- 图标内容缩放并居中，四周留出透明边距 -->
    <g transform="translate(4, 4) scale(0.03125)">
        <!-- 背景主体 -->
        <path
            d="M509.441408 1022.464a193.6128 193.6128 0 0 1-92.0064-23.1168L104.807808 830.0288C47.361408 798.0544 12.443008 741.4528 12.801408 680.5248V342.016c0-60.8512 34.5344-117.4784 91.9552-149.504L417.435008 23.1168a194.7136 194.7136 0 0 1 184.0128 0L914.177408 192.512c57.4208 32.1024 92.2368 88.6528 92.0064 149.504v338.5088c0 60.8512-34.5344 117.5296-92.0064 149.504l-312.704 169.3184a193.1776 193.1776 0 0 1-92.0064 23.1168z"
            fill="#4a4b9d"
            style="--darkreader-inline-fill: var(--darkreader-background-1edab5, #35aa8c);"/>

        <path
            d="M486.708608 1022.1056c-40.9088-191.2064-40.9088-325.7856-42.1888-360.064L576.001408 384c128.7424-46.8224 215.04-120.6784 408.832-122.368 14.2336 24.8832 21.76 52.992 21.9392 81.664v338.4832c0 60.8512-34.688 117.4784-92.032 149.504l-312.6784 169.2672a194.0992 194.0992 0 0 1-115.3536 21.5552z"
            fill="#757cbb"
            style="--darkreader-inline-fill: var(--darkreader-background-77e89b, #28794a);"/>

        <!-- 字符区（已替换） -->
        <g transform="translate(160, 210) scale(11)">
            <path
                fill="#FFFFFF"
                d="M0 33.76L4.47 33.37Q4.79 36.06 5.94 37.78Q7.10 39.50 9.55 40.56Q11.99 41.63 15.04 41.63Q17.75 41.63 19.82 40.82Q21.90 40.01 22.91 38.61Q23.93 37.21 23.93 35.55Q23.93 33.86 22.95 32.60Q21.97 31.35 19.73 30.49Q18.29 29.93 13.35 28.75Q8.42 27.56 6.45 26.51Q3.88 25.17 2.62 23.18Q1.37 21.19 1.37 18.73Q1.37 16.02 2.91 13.66Q4.44 11.30 7.40 10.08Q10.35 8.86 13.96 8.86Q17.94 8.86 20.98 10.14Q24.02 11.43 25.66 13.92Q27.29 16.41 27.42 19.56L22.88 19.90Q22.51 16.50 20.40 14.77Q18.29 13.04 14.16 13.04Q9.86 13.04 7.90 14.61Q5.93 16.19 5.93 18.41Q5.93 20.34 7.32 21.58Q8.69 22.83 14.47 24.13Q20.24 25.44 22.39 26.42Q25.51 27.86 27.00 30.07Q28.49 32.28 28.49 35.16Q28.49 38.01 26.86 40.54Q25.22 43.07 22.16 44.47Q19.09 45.87 15.26 45.87Q10.40 45.87 7.12 44.46Q3.83 43.04 1.97 40.20Q0.10 37.35 0 33.76ZM39.18 45.26L31.25 19.34L35.79 19.34L39.92 34.30L41.46 39.87Q41.55 39.45 42.80 34.52L46.92 19.34L51.44 19.34L55.32 34.38L56.62 39.33L58.11 34.33L62.55 19.34L66.82 19.34L58.72 45.26L54.15 45.26L50.02 29.74L49.02 25.32L43.77 45.26L39.18 45.26Z"/>
        </g>
    </g>

    <!-- 右下角绿色圆点 -->
    <circle cx="35" cy="29" r="3.5"
            fill="#ed6d46"
            stroke="#FFFFFF"
            stroke-width="0.5"/>
</svg>
